<?xml version="1.0" encoding="utf-8"?>
<!-- Generator: Adobe Illustrator 21.1.0, SVG Export Plug-In . SVG Version: 6.00 Build 0)  -->
<svg version="1.1" id="ARTBOARD1" xmlns="http://www.w3.org/2000/svg" xmlns:xlink="http://www.w3.org/1999/xlink" x="0px" y="0px"
	 viewBox="0 0 800 800" style="enable-background:new 0 0 800 800;" xml:space="preserve">
<style type="text/css">
	.st0{fill:#358ED7;}
	.st1{fill:#003270;}
	.st2{clip-path:url(#SVGID_2_);}
	.st3{fill:#F2D29D;}
	.st4{fill:#E3C593;}
	.st5{fill:#EDCD99;}
	.st6{fill:#FFDCA4;}
	.st7{fill:#5E523D;}
	.st8{fill:#D6D6D6;}
	.st9{fill:#F0F0F0;}
	.st10{fill:#4B5669;}
	.st11{fill:#616F87;}
	.st12{opacity:7.000000e-02;clip-path:url(#SVGID_2_);}
	.st13{fill:#A6A6A6;}
	.st14{fill:#FFFFFF;}
	.st15{fill:#C7C7C7;}
</style>
<g>
	<g>
		<g>
			<g>
				<path class="st0" d="M578.2,379.1l-56.6-18.8c-4.5-1.5-7-6.4-5.5-10.9l25.3-76.5c1.5-4.5,6.4-7,10.9-5.5l56.6,18.8
					c4.5,1.5,7,6.4,5.5,10.9l-25.3,76.5C587.6,378.1,582.8,380.6,578.2,379.1z"/>
				<path class="st1" d="M579.1,361.9l25.6-77.1l-52.3-17.4c-4.5-1.5-9.4,1-10.9,5.5l-25.3,76.5c-1.5,4.5,1,9.4,5.5,10.9l56.6,18.8
					c4.5,1.5,9.4-1,10.9-5.5l2.5-7.5L579.1,361.9z"/>
				<g>
					<path class="st0" d="M543.8,283.5l-10.6-3.5c-1.2-0.4-1.8-1.7-1.4-2.8l0,0c0.4-1.2,1.7-1.8,2.8-1.4l10.6,3.5
						c1.2,0.4,1.8,1.7,1.4,2.8l0,0C546.3,283.2,545,283.9,543.8,283.5z"/>
					<path class="st0" d="M540.9,292.5l-10.6-3.5c-1.2-0.4-1.8-1.7-1.4-2.8l0,0c0.4-1.2,1.7-1.8,2.8-1.4l10.6,3.5
						c1.2,0.4,1.8,1.7,1.4,2.8l0,0C543.3,292.2,542,292.9,540.9,292.5z"/>
					<path class="st0" d="M537.9,301.5l-10.6-3.5c-1.2-0.4-1.8-1.7-1.4-2.8l0,0c0.4-1.2,1.7-1.8,2.8-1.4l10.6,3.5
						c1.2,0.4,1.8,1.7,1.4,2.8l0,0C540.3,301.3,539,301.9,537.9,301.5z"/>
					<path class="st0" d="M534.9,310.5l-10.6-3.5c-1.2-0.4-1.8-1.7-1.4-2.8l0,0c0.4-1.2,1.7-1.8,2.8-1.4l10.6,3.5
						c1.2,0.4,1.8,1.7,1.4,2.8l0,0C537.3,310.3,536.1,310.9,534.9,310.5z"/>
					<path class="st0" d="M531.9,319.5l-10.6-3.5c-1.2-0.4-1.8-1.7-1.4-2.8l0,0c0.4-1.2,1.7-1.8,2.8-1.4l10.6,3.5
						c1.2,0.4,1.8,1.7,1.4,2.8l0,0C534.3,319.3,533.1,319.9,531.9,319.5z"/>
					<path class="st0" d="M528.9,328.6l-10.6-3.5c-1.2-0.4-1.8-1.7-1.4-2.8l0,0c0.4-1.2,1.7-1.8,2.8-1.4l10.6,3.5
						c1.2,0.4,1.8,1.7,1.4,2.8l0,0C531.3,328.3,530.1,328.9,528.9,328.6z"/>
					<path class="st0" d="M525.9,337.6l-10.6-3.5c-1.2-0.4-1.8-1.7-1.4-2.8l0,0c0.4-1.2,1.7-1.8,2.8-1.4l10.6,3.5
						c1.2,0.4,1.8,1.7,1.4,2.8l0,0C528.3,337.3,527.1,338,525.9,337.6z"/>
					<path class="st0" d="M522.9,346.6l-10.6-3.5c-1.2-0.4-1.8-1.7-1.4-2.8l0,0c0.4-1.2,1.7-1.8,2.8-1.4l10.6,3.5
						c1.2,0.4,1.8,1.7,1.4,2.8l0,0C525.4,346.3,524.1,347,522.9,346.6z"/>
				</g>
			</g>
			<g>
				<path class="st0" d="M572.9,347.3C572.9,347.3,572.9,347.3,572.9,347.3C572.9,347.3,572.9,347.3,572.9,347.3z"/>
				<path class="st0" d="M562.9,297.5C562.9,297.5,562.9,297.5,562.9,297.5C562.9,297.5,562.9,297.5,562.9,297.5z"/>
				<path class="st0" d="M551,302c-2.8,3.6-3.7,8.3-3.5,12.8c0.1,3,0.8,6,1.5,9c0.4,1.5,0.7,3.1,0.9,4.7c0.4,3,1,6,2,8.9
					c1.5,4.2,4.2,8.2,8.1,10.4c3.9,2.2,9.2,2.3,12.7-0.4c0,0-0.1-0.1,0,0l-2.6-12.9c-2.3-0.7-4.4-0.5-6.6,0.3
					c-1.9-3.3-3.2-6.9-3.9-10.6c-0.8-3.7-1-7.5-0.5-11.3c2.4-0.1,4.4-0.7,6.2-2.3l-2.6-12.9c0,0.1,0,0,0,0
					C558.5,296.3,553.7,298.5,551,302z"/>
			</g>
		</g>
		<g>
			<polygon class="st1" points="214.9,220.5 237.1,183.4 235.1,179.1 170,209.8 172.1,214.2 			"/>
			<polygon class="st1" points="216.2,223.3 173.5,217 191.2,254.7 256.3,223.9 238.5,186.3 			"/>
		</g>
		<g>
			<g>
				<defs>
					<path id="SVGID_1_" d="M547.3,367.1c0-96.5-78.2-174.7-174.7-174.7s-174.7,78.2-174.7,174.7c0,13.1,1.5,25.9,4.2,38.2
						c-2.7,12.3-4.2,25-4.2,38.2c0,96.5,78.2,174.7,174.7,174.7s174.7-78.2,174.7-174.7c0-13.1-1.5-25.9-4.2-38.2
						C545.8,392.9,547.3,380.2,547.3,367.1z"/>
				</defs>
				<clipPath id="SVGID_2_">
					<use xlink:href="#SVGID_1_"  style="overflow:visible;"/>
				</clipPath>
				<g class="st2">
					<g>
						<rect x="323.3" y="395.7" class="st3" width="98.5" height="113.3"/>
					</g>
					<g>
						<path class="st4" d="M323.3,458.7c3,3.2,6.5,6.1,10.4,8.4l27.8,16.9c15.9,9.6,35.8,9.6,51.7,0l8.7-5.3v-83.1h-98.5V458.7z"/>
					</g>
					<g>
						<g>
							<path class="st5" d="M310.4,409.2c-9.1-3.2-13.9-13.4-17.8-22.7c-3.5-8.6-7.1-17.3-7.9-26.6c-0.3-4.2,0.2-8.9,3.2-11.6
								c2.4-2.1,5.8-2.4,8.8-1.6c3,0.8,5.7,2.6,8.3,4.3C321.5,361.9,318.5,390.7,310.4,409.2z"/>
						</g>
						<g>
							<path class="st5" d="M439.4,407.4c9.1-3.2,13.9-13.4,17.8-22.7c3.5-8.6,7.1-17.3,7.9-26.6c0.3-4.2-0.2-8.9-3.2-11.6
								c-2.4-2.1-5.8-2.4-8.8-1.6c-3,0.8-5.7,2.6-8.3,4.3C428.3,360.1,431.3,388.9,439.4,407.4z"/>
						</g>
						<g>
							<path class="st6" d="M425.6,451.2l-26.4,16.9c-15.1,9.6-34,9.6-49.1,0l-26.4-16.9c-14.1-9-22.7-25.1-22.7-42.5V304.1h147.3
								v104.6C448.3,426.1,439.7,442.2,425.6,451.2z"/>
						</g>
						<g>
							<path class="st7" d="M446.4,384.9c-0.6-11.9-3.8-24.3-6.7-35.8c-41.2-1.9-80.8-14.8-116.1-37.3c-0.2,16.3-4.1,32.6-11,47.1
								c-4.3,8.9-9.9,18-8.7,27.8c-4.1-9-7.4-17.3-11.5-26.4c-4.8-10.7-9.6-21.4-12.2-32.9c-2.6-11.5-2.8-23.9,1.6-34.8
								c5.1-12.8,16.5-22.5,29.4-25.1c8.6-15.4,24.1-27.1,40.5-31.8c16.4-4.7,33.7-4.4,50.6-2.3c20.3,2.5,42.1,8.8,54.1,26.2
								c8.4,12.2,10.5,28.1,10.5,43.2C466.6,331.6,459.9,360,446.4,384.9z"/>
						</g>
					</g>
					<g>
						<g>
							<path class="st8" d="M372.6,501.5l-49.2-26.1l-14.2,13.1l-39.5,16.9c-23.4,10-41.4,29.5-49.6,53.6l-7.9,58h160.4V501.5z"/>
						</g>
						<g>
							<path class="st8" d="M372.6,501.5l49.2-26.1l14.2,13.1l39.5,16.9c23.4,10,41.4,29.5,49.6,53.6l7.9,58H372.6V501.5z"/>
						</g>
						<g>
							<polygon class="st1" points="372.6,512.1 348.3,602.8 353.2,616.9 392,616.9 396.9,602.7 							"/>
						</g>
						<g>
							<path class="st1" d="M363.9,533l-7.2-12.4c-3.8-6.7,1-15,8.7-15h14.4c7.7,0,12.5,8.3,8.7,15l-7.2,12.4
								C377.4,539.7,367.8,539.7,363.9,533z"/>
						</g>
						<g>
							<polygon class="st9" points="435.9,488.4 452,495.3 417.4,564.6 372.6,501.5 421.8,475.4 							"/>
						</g>
						<g>
							<path class="st10" d="M533,616.9H392l43.9-128.5l39.5,16.9c23.4,10,41.4,29.5,49.6,53.6L533,616.9z"/>
						</g>
						<g>
							<path class="st11" d="M473.4,504.5c-17.5,17-34.2,32.9-34.2,32.9l15.2,15.2l-43.1,64.2H392l43.9-128.5L473.4,504.5z"/>
						</g>
						<g>
							<polygon class="st9" points="309.2,488.4 293.2,495.3 327.7,564.6 372.6,501.5 323.4,475.4 							"/>
						</g>
						<g>
							<path class="st10" d="M212.2,616.9h141l-43.9-128.5l-39.5,16.9c-23.4,10-41.4,29.5-49.6,53.6L212.2,616.9z"/>
						</g>
						<g>
							<path class="st11" d="M271.7,504.5c17.5,17,34.2,32.9,34.2,32.9l-15.2,15.2l43.1,64.2h19.4l-43.9-128.5L271.7,504.5z"/>
						</g>
					</g>
					<g>
						<path class="st1" d="M289.7,407.4h-10.9v-64.1c0-52.8,43-95.8,95.8-95.8s95.8,43,95.8,95.8v61.5h-10.9v-61.5
							c0-46.8-38.1-85-85-85c-46.8,0-85,38.1-85,85V407.4z"/>
					</g>
					<g>
						<g>
							<path class="st1" d="M284.6,408.8L284.6,408.8c-10.9,0-19.8-8.9-19.8-19.8v-26.1c0-10.9,8.9-19.8,19.8-19.8h0V408.8z"/>
						</g>
						<g>
							<path class="st1" d="M289.1,414h7c2.5,0,4.5-2,4.5-4.5v-67.1c0-2.5-2-4.5-4.5-4.5h-7c-2.5,0-4.5,2-4.5,4.5v67.1
								C284.6,412,286.6,414,289.1,414z"/>
						</g>
					</g>
					<g>
						<path class="st1" d="M384.9,462.8c-2.3,0-4.5-1.5-5.2-3.9c-0.9-2.9,0.8-5.9,3.6-6.8l19.6-5.9c28-8.5,49.9-30.2,58.6-58.1
							c0.9-2.9,4-4.5,6.8-3.6c2.9,0.9,4.5,4,3.6,6.8c-9.8,31.3-34.4,55.7-65.8,65.3l-19.6,5.9C386,462.7,385.4,462.8,384.9,462.8z"
							/>
					</g>
					<g>
						<g>
							<path class="st1" d="M464.9,343.2L464.9,343.2c10.9,0,19.8,8.9,19.8,19.8V389c0,10.9-8.9,19.8-19.8,19.8h0V343.2z"/>
						</g>
						<g>
							<path class="st1" d="M460.4,337.9h-7c-2.5,0-4.5,2-4.5,4.5v67.1c0,2.5,2,4.5,4.5,4.5h7c2.5,0,4.5-2,4.5-4.5v-67.1
								C464.9,339.9,462.9,337.9,460.4,337.9z"/>
						</g>
					</g>
				</g>
				<path class="st12" d="M475.4,505.3l-2-0.9l-37.5-16.1l-14.1-13v-21.8l3.7-2.4c4.4-2.8,8.3-6.3,11.5-10.4
					c9.8-7.4,18.1-16.5,24.6-27c1.8-0.6,3.2-2.3,3.2-4.3v-0.8h0c10.9,0,19.8-8.9,19.8-19.8v-26.1c0-9-6-16.5-14.2-19v-0.6
					c0-9.8-1.5-19.2-4.2-28.1c0.3-4.1,0.5-8.1,0.5-12.2c0.1-15.1-2-31-10.5-43.2c-12-17.4-33.8-23.7-54.1-26.2
					c-9.8-1.2-19.8-1.9-29.7-1.2v384.6H392h19.4H533l-7.9-58C516.8,534.8,498.8,515.4,475.4,505.3z M448.3,408.7v-7.8
					c0.2-0.2,0.4-0.5,0.6-0.7v9.3c0,1,0.3,1.9,0.9,2.7c-0.6,0.8-1.2,1.7-1.8,2.5C448.2,412.7,448.3,410.7,448.3,408.7z"/>
			</g>
		</g>
		<path class="st1" d="M168.1,333.6c-23.6,10-36.9,31.8-29.7,48.7c4.2,9.9,14.6,15.9,27.3,17.1l-0.3,13.2l11.4-13.4
			c5.7-0.7,11.5-2.2,17.3-4.7c23.6-10,36.9-31.8,29.7-48.7C216.6,329,191.7,323.5,168.1,333.6z M191.1,380.3l-6.3,3.2l-3-5.9
			l6.3-3.2L191.1,380.3z M187.2,355.6c-0.3,2.5-1.1,4.9-2.2,7.4c-0.5,1.3-0.7,2.4-0.6,3.3c0.1,0.9,0.6,2.1,1.3,3.5l-6.2,3.1
			c-1.2-2.4-1.8-4.3-1.8-5.6c0-1.3,0.6-3.2,1.7-5.7c0.7-2,1.1-3.7,1.3-5.3c0.2-1.6-0.1-3.1-0.8-4.5c-0.8-1.6-1.9-2.7-3.2-3.2
			c-1.3-0.5-2.8-0.3-4.5,0.5c-1.4,0.7-2.4,1.7-3,3c-0.6,1.3-0.5,2.7,0.2,4.2l-6,3l-0.2-0.1c-1.6-3-1.7-5.9-0.5-8.6
			c1.2-2.7,3.5-4.9,6.8-6.6c3.6-1.8,6.8-2.3,9.7-1.4c2.9,0.8,5.2,2.8,6.8,6.1C187.2,350.8,187.5,353.1,187.2,355.6z"/>
		<path class="st1" d="M375,88.1L375,88.1c-25.1,0-40.9,27.2-28.3,49l28.3,49l28.3-49C415.9,115.4,400.2,88.1,375,88.1z M396,132.9
			L396,132.9c-9.3,16.1-32.6,16.1-41.9,0l0,0c-9.3-16.1,2.3-36.3,20.9-36.3h0C393.6,96.6,405.3,116.8,396,132.9z"/>
		<g>
			<g>
				<path class="st1" d="M566,441C566,441,566,441,566,441C566,441,566.1,440.9,566,441z"/>
				<path class="st1" d="M510.3,478C510.2,478,510.2,478,510.3,478C510.3,478,510.3,478,510.3,478z"/>
				<path class="st1" d="M521.7,490.3c5.7,1.6,11.9,0.4,17.3-2.1c3.6-1.7,7-3.9,10.2-6.4c1.7-1.3,3.4-2.4,5.2-3.5
					c3.5-2,6.8-4.2,9.8-6.9c4.4-4,7.9-9.2,8.7-15.1c0.8-5.9-1.7-12.4-6.9-15.3c0,0-0.1,0.1,0,0.1l-14.5,9.6c0.3,3.1,1.6,5.6,3.7,7.9
					c-3,4-6.8,7.3-11,10c-4.1,2.8-8.7,5-13.5,6.2c-1.4-2.8-3.1-5-5.9-6.4l-14.5,9.6c0.1-0.1,0,0-0.1,0
					C511,483.9,516,488.7,521.7,490.3z"/>
			</g>
			<g>
				<g>
					<path class="st1" d="M561.7,435.1c-1.2,0.8-2.8,0.5-3.7-0.7c-9.6-13.9-28.8-17.4-42.7-7.8c-13.9,9.6-17.4,28.8-7.8,42.7
						c0.8,1.2,0.5,2.8-0.7,3.7c-1.2,0.8-2.8,0.5-3.7-0.7c-11.3-16.3-7.2-38.8,9.2-50.1c16.3-11.3,38.8-7.2,50.1,9.2
						C563.2,432.6,562.9,434.3,561.7,435.1z"/>
				</g>
				<g>
					<path class="st1" d="M553,441.1c-1.2,0.8-2.8,0.5-3.7-0.7c-6.3-9.1-18.9-11.5-28.1-5.1c-9.1,6.3-11.5,18.9-5.1,28.1
						c0.8,1.2,0.5,2.8-0.7,3.7c-1.2,0.8-2.8,0.5-3.7-0.7c-8-11.5-5.1-27.4,6.5-35.4c11.5-8,27.4-5.1,35.4,6.5
						C554.5,438.6,554.2,440.3,553,441.1z"/>
				</g>
				<g>
					<path class="st1" d="M545.4,446.4c-1.2,0.8-2.8,0.5-3.7-0.7c-3.4-5-10.3-6.2-15.2-2.8c-5,3.4-6.2,10.3-2.8,15.2
						c0.8,1.2,0.5,2.8-0.7,3.7c-1.2,0.8-2.8,0.5-3.7-0.7c-5.1-7.4-3.2-17.5,4.1-22.6c7.4-5.1,17.5-3.2,22.6,4.1
						C546.9,443.9,546.6,445.5,545.4,446.4z"/>
				</g>
			</g>
		</g>
		<g>
			<polygon class="st1" points="267.4,480.2 250.4,444 244.2,452.9 221.7,437.2 211.2,452.3 233.7,468 227.6,476.8 			"/>
			<polygon class="st1" points="170,444.3 209.9,447.7 203.7,456.5 226.2,472.2 215.7,487.3 193.2,471.6 187.1,480.5 			"/>
		</g>
		<g>
			<path class="st1" d="M387.8,117.1c-0.1,2.2-0.7,4.2-2,5.8c-1.2,1.6-3,2.4-5.5,2.4c-0.8,0-1.5-0.2-2.1-0.7c-0.6-0.4-1-1.1-1.2-1.9
				c-0.5,0.8-1,1.5-1.7,1.9c-0.7,0.4-1.5,0.6-2.4,0.6c-1.4,0-2.5-0.6-3.3-1.8c-0.8-1.2-1.1-2.8-0.9-4.8c0.3-2.6,1-4.7,2.2-6.2
				c1.2-1.6,2.7-2.3,4.4-2.3c1.2,0,2.1,0.1,2.9,0.4c0.7,0.3,1.5,0.7,2.4,1.2l0,0.1h0.1l-0.8,8.8c-0.1,1,0,1.6,0.2,2
				c0.2,0.4,0.5,0.5,0.9,0.5c1.2,0,2.1-0.6,2.8-1.7c0.7-1.1,1.1-2.5,1.2-4.2c0.2-3.6-0.5-6.4-2.1-8.5s-4-3-7.2-3
				c-3.1,0-5.6,1.1-7.4,3.3c-1.9,2.2-2.9,5.1-3,8.8c-0.2,3.6,0.6,6.5,2.2,8.6c1.7,2.1,4.1,3.1,7.2,3.1c0.9,0,1.8-0.1,2.7-0.3
				c0.9-0.2,1.7-0.5,2.4-0.8l0.6,2.3c-0.7,0.4-1.6,0.8-2.6,1c-1.1,0.2-2.1,0.4-3.1,0.4c-4,0-7.2-1.3-9.4-3.8c-2.2-2.5-3.2-6-3-10.5
				c0.2-4.4,1.5-7.9,3.9-10.5c2.4-2.6,5.6-3.9,9.6-3.9c4,0,7,1.2,9.1,3.7C387,109.4,388,112.8,387.8,117.1z M372.3,118.6
				c-0.1,1.3,0,2.3,0.3,3c0.3,0.7,0.8,1,1.4,1c0.6,0,1.1-0.1,1.6-0.4s0.9-0.8,1.3-1.5c0,0,0-0.1,0-0.1c0,0,0-0.1,0-0.1l0.7-7.6
				c-0.2-0.1-0.5-0.1-0.7-0.2c-0.2,0-0.5-0.1-0.7-0.1c-1.1,0-2,0.5-2.6,1.5C372.9,115.1,372.5,116.6,372.3,118.6z"/>
		</g>
		<g>
			<path class="st13" d="M434,671.9l-40.6,4.6c-5.1,0.6-9.7-3.1-10.2-8.2l-9.3-82.1c-0.6-5.1,3.1-9.7,8.2-10.2l40.6-4.6
				c5.1-0.6,9.7,3.1,10.2,8.2l9.3,82.1C442.7,666.8,439.1,671.4,434,671.9z"/>
			<path class="st14" d="M433.4,667.3l-40.6,4.6c-5.1,0.6-9.7-3.1-10.2-8.2l-9.3-82.1c-0.6-5.1,3.1-9.7,8.2-10.2l40.6-4.6
				c5.1-0.6,9.7,3.1,10.2,8.2l9.3,82.1C442.2,662.1,438.5,666.7,433.4,667.3z"/>
			
				<rect x="381.6" y="580.7" transform="matrix(0.9937 -0.1123 0.1123 0.9937 -66.976 49.6811)" class="st15" width="51.8" height="77.3"/>
			
				<ellipse transform="matrix(0.9937 -0.1123 0.1123 0.9937 -71.9579 50.5327)" class="st15" cx="412.5" cy="663.9" rx="3.9" ry="3.9"/>
		</g>
		<path class="st1" d="M496.3,154.2c-21.1,11.2-29.1,37.4-18,58.4c11.2,21.1,37.4,29.1,58.4,18c21.1-11.2,29.1-37.4,18-58.4
			C543.6,151.1,517.4,143,496.3,154.2z M549.1,172.3l-12.5,6.6c-6.9-12.1-16-20.9-24.6-24.5C526.4,152.7,541.1,159.4,549.1,172.3z
			 M496.6,160.1l16.6,31.3l-14.6,7.7C490.7,182.9,490,166.3,496.6,160.1z M515.5,195.7l16.6,31.3c-8.9,2-22.2-8-31.2-23.6
			L515.5,195.7z M536.5,224.7l-16.6-31.3l14.6-7.7C542.4,201.8,543.1,218.4,536.5,224.7z M517.6,189L501,157.7
			c8.9-2,22.2,8,31.2,23.6L517.6,189z M487.7,167.3c-1.8,9.2,0.3,21.6,6.5,34.2l-12.5,6.6C475.4,194.2,478.2,178.3,487.7,167.3z
			 M484,212.4l12.5-6.6c6.9,12.1,16,20.9,24.6,24.5C506.7,232.1,492,225.4,484,212.4z M545.4,217.5c1.8-9.2-0.3-21.6-6.5-34.2
			l12.5-6.6C557.7,190.6,555,206.5,545.4,217.5z"/>
	</g>
</g>
</svg>
