<svg xmlns="http://www.w3.org/2000/svg" xmlns:xlink="http://www.w3.org/1999/xlink" width="57" height="57" viewBox="0 0 57 57">
  <defs>
    <clipPath id="clip-eligibilité">
      <rect width="57" height="57"/>
    </clipPath>
  </defs>
  <g id="eligibilité" clip-path="url(#clip-eligibilité)">
    <rect width="57" height="57" fill="#fff"/>
    <g id="check" transform="translate(5 1)">
      <path id="Tracé_14" data-name="Tracé 14" d="M49.289,12.119a4.684,4.684,0,0,0-2.951-4.044L26.64.326a4.655,4.655,0,0,0-3.419,0L3.523,8.075A4.683,4.683,0,0,0,.572,12.119a56.047,56.047,0,0,0,2.8,20.31A38.317,38.317,0,0,0,10.225,44.8a31.861,31.861,0,0,0,13.049,9.221,4.6,4.6,0,0,0,3.314,0A31.861,31.861,0,0,0,39.636,44.8a38.325,38.325,0,0,0,6.855-12.376,56.047,56.047,0,0,0,2.8-20.31Zm-4.307,19.79a36.744,36.744,0,0,1-6.564,11.864,30.283,30.283,0,0,1-12.4,8.762,3.015,3.015,0,0,1-2.167,0,30.283,30.283,0,0,1-12.4-8.762A36.731,36.731,0,0,1,4.88,31.909,54.321,54.321,0,0,1,2.166,12.22,3.08,3.08,0,0,1,4.108,9.561l19.7-7.75a3.067,3.067,0,0,1,2.25,0l19.7,7.75A3.082,3.082,0,0,1,47.7,12.22a54.341,54.341,0,0,1-2.714,19.688Zm0,0" transform="translate(-0.501 0)" fill="#1a324e"/>
      <path id="Tracé_15" data-name="Tracé 15" d="M84.968,59.1,69.549,53.038a3.815,3.815,0,0,0-2.8,0L51.328,59.1a3.841,3.841,0,0,0-2.419,3.316,42.5,42.5,0,0,0,.3,7.724.8.8,0,1,0,1.584-.2,40.875,40.875,0,0,1-.294-7.423,2.238,2.238,0,0,1,1.411-1.931L67.33,54.523a2.225,2.225,0,0,1,1.634,0l15.418,6.066a2.238,2.238,0,0,1,1.411,1.931c.109,1.709.791,16.973-8.687,26.387a.8.8,0,0,0,1.125,1.133C88.21,80.129,87.5,64.2,87.387,62.419A3.841,3.841,0,0,0,84.968,59.1Zm0,0" transform="translate(-43.718 -47.171)" fill="#1a324e"/>
      <path id="Tracé_16" data-name="Tracé 16" d="M82.59,261.062a23.97,23.97,0,0,1-5.429,2.923,2.186,2.186,0,0,1-1.572,0c-10.425-4.012-14.431-13.414-15.957-20.6a.8.8,0,0,0-1.562.332c1.607,7.568,5.852,17.486,16.945,21.755a3.78,3.78,0,0,0,2.718,0,25.555,25.555,0,0,0,5.791-3.119.8.8,0,1,0-.935-1.294Zm0,0" transform="translate(-51.946 -216.995)" fill="#1a324e"/>
      <path id="Tracé_17" data-name="Tracé 17" d="M130.69,144.109a11.874,11.874,0,1,0,11.873,11.874A11.887,11.887,0,0,0,130.69,144.109Zm0,22.15a10.277,10.277,0,1,1,10.277-10.277A10.289,10.289,0,0,1,130.69,166.259Zm0,0" transform="translate(-106.26 -128.816)" fill="#3d9be8"/>
      <path id="Tracé_18" data-name="Tracé 18" d="M174.462,202.215a2.859,2.859,0,0,0-.982-2.06l-.194-.168a2.848,2.848,0,0,0-3.925.182l-4.229,4.416-1.065-.959a2.855,2.855,0,0,0-4.021.207,2.85,2.85,0,0,0,.271,4.085l3.22,2.73a2.835,2.835,0,0,0,3.847-.148l6.233-6.166A2.861,2.861,0,0,0,174.462,202.215Zm-1.967.984-6.233,6.166a1.247,1.247,0,0,1-1.692.065l-3.22-2.73A1.253,1.253,0,1,1,163,204.814l1.17,1.053a1.445,1.445,0,0,0,2.02-.075l4.326-4.518a1.252,1.252,0,0,1,1.726-.08l.194.168a1.253,1.253,0,0,1,.061,1.838Zm0,0" transform="translate(-142.457 -178.142)" fill="#1a324e"/>
    </g>
  </g>
</svg>
