<svg xmlns="http://www.w3.org/2000/svg" xmlns:xlink="http://www.w3.org/1999/xlink" width="57" height="57" viewBox="0 0 57 57">
  <defs>
    <clipPath id="clip-equipe">
      <rect width="57" height="57"/>
    </clipPath>
  </defs>
  <g id="equipe" clip-path="url(#clip-equipe)">
    <rect width="57" height="57" fill="#fff"/>
    <g id="team" transform="translate(0.125 6)">
      <g id="Groupe_2" data-name="Groupe 2" transform="translate(43.629 17.816)">
        <g id="Groupe_1" data-name="Groupe 1">
          <path id="Tracé_22" data-name="Tracé 22" d="M399.3,229.428c-1.935-.968-5.564-.979-5.717-.979a.833.833,0,0,0,0,1.666,14.386,14.386,0,0,1,4.972.8.833.833,0,0,0,.745-1.49Z" transform="translate(-392.751 -228.449)" fill="#1a324e"/>
        </g>
      </g>
      <g id="Groupe_4" data-name="Groupe 4" transform="translate(0 0)">
        <g id="Groupe_3" data-name="Groupe 3">
          <path id="Tracé_23" data-name="Tracé 23" d="M54.333,98.723l-3.441-.983a.349.349,0,0,1-.252-.334V96.256a6.26,6.26,0,0,0,.8-.653,6.129,6.129,0,0,0,1.876-4.434V89.584l.333-.665a5.315,5.315,0,0,0,.558-2.365V82.261a.833.833,0,0,0-.833-.833H45.353a5.293,5.293,0,0,0-5.287,5.287v.05a4.419,4.419,0,0,0,.464,1.966l.427.853v1.361A6.5,6.5,0,0,0,43.629,96.2v1.2c0,.186,0,.262-.688.459l-1.679.48-4.857-1.766a.832.832,0,0,0-.227-.638l-1.552-1.631V91.572c.164-.135.326-.274.483-.421a9.778,9.778,0,0,0,3.081-7.108V81.857a9.63,9.63,0,0,0,.891-4.05V68.9a.833.833,0,0,0-.833-.833H25.776a7.969,7.969,0,0,0-7.96,7.96v1.782a9.63,9.63,0,0,0,.891,4.05v1.881a10.18,10.18,0,0,0,3.563,7.77v2.8L20.718,95.94a.832.832,0,0,0-.227.638l-5.126,1.864a4.369,4.369,0,0,0-1.03.54l-.8-.4A6.363,6.363,0,0,0,16.722,96a.833.833,0,0,0,0-.745c-.6-1.2-.673-3.4-.732-5.172-.019-.589-.038-1.145-.073-1.641a7.247,7.247,0,0,0-7.067-7.01,7.247,7.247,0,0,0-7.067,7.01c-.035.5-.054,1.052-.073,1.641-.058,1.769-.131,3.971-.732,5.172a.833.833,0,0,0,0,.745,6.362,6.362,0,0,0,3.195,2.581L1.938,99.695A3.487,3.487,0,0,0,0,102.83v6.155a.833.833,0,1,0,1.666,0V102.83a1.829,1.829,0,0,1,1.017-1.645l2.784-1.392.968.92a3.5,3.5,0,0,0,4.83,0l.968-.92.908.454a4.387,4.387,0,0,0-.67,2.326v6.412a.833.833,0,1,0,1.666,0v-6.412a2.738,2.738,0,0,1,1.8-2.566l5.4-1.965,2.25,3.375a1.718,1.718,0,0,0,1.264.759q.086.008.172.008a1.717,1.717,0,0,0,1.217-.5l1.373-1.373v8.678a.833.833,0,0,0,1.666,0v-8.678l1.373,1.373a1.716,1.716,0,0,0,1.217.505q.085,0,.172-.008a1.718,1.718,0,0,0,1.265-.759l2.25-3.375,5.4,1.965a2.739,2.739,0,0,1,1.8,2.566v6.412a.833.833,0,1,0,1.666,0v-6.412a4.4,4.4,0,0,0-1.232-3.048l.206-.059a4.569,4.569,0,0,0,.775-.28l2.127,2.127v7.672a.833.833,0,1,0,1.666,0v-7.672L50.08,99.2a1.981,1.981,0,0,0,.354.141l3.441.983a1.847,1.847,0,0,1,1.334,1.769v6.892a.833.833,0,1,0,1.666,0v-6.892A3.521,3.521,0,0,0,54.333,98.723ZM5.345,97.251a5.989,5.989,0,0,1-2.674-1.717,9.184,9.184,0,0,0,.475-1.995,6.213,6.213,0,0,0,2.2,2.713Zm4.773,2.255a1.838,1.838,0,0,1-2.534,0l-.775-.736a1.724,1.724,0,0,0,.2-.814v-.888a6.2,6.2,0,0,0,3.679,0v.887a1.724,1.724,0,0,0,.2.814ZM8.851,95.681a4.517,4.517,0,0,1-4.512-4.512.828.828,0,0,0-.97-.821c0-.072,0-.143.007-.214.019-.573.036-1.114.069-1.578A6.185,6.185,0,0,1,5.13,84.672a5.176,5.176,0,0,1,7.441,0,6.185,6.185,0,0,1,1.684,3.884c.033.464.051,1,.07,1.578l.005.149a7.486,7.486,0,0,0-4.115-3.007,10.455,10.455,0,0,0-3.169-.5.833.833,0,0,0-.577.254l-1.5,1.559a.833.833,0,0,0,1.2,1.157l1.251-1.3c1.077.053,4.543.456,5.891,3.424A4.5,4.5,0,0,1,8.851,95.681Zm3.505,1.573V96.26a6.163,6.163,0,0,0,2.2-2.716,9.172,9.172,0,0,0,.474,1.99A6.018,6.018,0,0,1,12.356,97.254Zm8.017-13.516V81.671a.833.833,0,0,0-.083-.362,7.992,7.992,0,0,1-.808-3.5V76.026a6.3,6.3,0,0,1,6.293-6.293H37.414v8.075a7.992,7.992,0,0,1-.808,3.5.833.833,0,0,0-.083.362v2.372a8,8,0,0,1-2.554,5.893,8.288,8.288,0,0,1-.64.542l-.014.01A8.011,8.011,0,0,1,27.909,92.1,8.252,8.252,0,0,1,20.373,83.738ZM25.064,100.5a.052.052,0,0,1-.046.017.053.053,0,0,1-.042-.025l-2.591-3.887.834-.876,3.931,2.687Zm3.384-3.215L23.937,94.2V92.647A9.38,9.38,0,0,0,27.8,93.763q.329.021.656.021a9.65,9.65,0,0,0,4.5-1.1V94.2Zm3.473,3.206a.053.053,0,0,1-.042.025.051.051,0,0,1-.046-.017l-2.085-2.085,3.931-2.687.834.876Zm15.213-.7L45.244,97.9A2.287,2.287,0,0,0,45.3,97.4v-.352a5.842,5.842,0,0,0,1.65.291c.064,0,.128,0,.192,0a6.189,6.189,0,0,0,1.837-.278V97.4a1.992,1.992,0,0,0,.06.486Zm3.142-5.382a4.478,4.478,0,0,1-3.281,1.271,4.664,4.664,0,0,1-4.372-4.734V89.388a.832.832,0,0,0-.088-.373l-.515-1.029a2.744,2.744,0,0,1-.288-1.221v-.05a3.625,3.625,0,0,1,3.621-3.621h7.184v3.46a3.64,3.64,0,0,1-.382,1.619l-.421.841a.833.833,0,0,0-.088.373v1.782A4.476,4.476,0,0,1,50.276,94.408Z" transform="translate(0 -68.066)" fill="#1a324e"/>
        </g>
      </g>
      <g id="Groupe_6" data-name="Groupe 6" transform="translate(51.646 34.742)">
        <g id="Groupe_5" data-name="Groupe 5">
          <path id="Tracé_24" data-name="Tracé 24" d="M465.756,380.814a.833.833,0,0,0-.833.833v5.345a.833.833,0,0,0,1.666,0v-5.345A.833.833,0,0,0,465.756,380.814Z" transform="translate(-464.923 -380.814)" fill="#3d9be8"/>
        </g>
      </g>
      <g id="Groupe_8" data-name="Groupe 8" transform="translate(3.563 35.843)">
        <g id="Groupe_7" data-name="Groupe 7">
          <path id="Tracé_25" data-name="Tracé 25" d="M32.91,390.728a.833.833,0,0,0-.833.833V395.8a.833.833,0,0,0,1.666,0v-4.244A.833.833,0,0,0,32.91,390.728Z" transform="translate(-32.077 -390.728)" fill="#3d9be8"/>
        </g>
      </g>
      <g id="Groupe_10" data-name="Groupe 10" transform="translate(21.379 7.569)">
        <g id="Groupe_9" data-name="Groupe 9">
          <path id="Tracé_26" data-name="Tracé 26" d="M206.354,138.677c-3.151-3.151-9.744-2.549-12.432-2.143a1.71,1.71,0,0,0-1.461,1.7v1.919a.833.833,0,0,0,1.666,0v-1.919a.055.055,0,0,1,.044-.056,26.32,26.32,0,0,1,5.413-.264c2.6.173,4.48.825,5.593,1.938a.833.833,0,1,0,1.178-1.178Z" transform="translate(-192.46 -136.203)" fill="#1a324e"/>
        </g>
      </g>
      <g id="Groupe_12" data-name="Groupe 12" transform="translate(17.816 36.523)">
        <g id="Groupe_11" data-name="Groupe 11">
          <path id="Tracé_27" data-name="Tracé 27" d="M161.217,396.853a.833.833,0,0,0-.833.833v3.563a.833.833,0,1,0,1.666,0v-3.563A.833.833,0,0,0,161.217,396.853Z" transform="translate(-160.384 -396.853)" fill="#3d9be8"/>
        </g>
      </g>
      <g id="Groupe_14" data-name="Groupe 14" transform="translate(37.414 36.523)">
        <g id="Groupe_13" data-name="Groupe 13">
          <path id="Tracé_28" data-name="Tracé 28" d="M337.639,396.853a.833.833,0,0,0-.833.833v3.563a.833.833,0,1,0,1.666,0v-3.563A.833.833,0,0,0,337.639,396.853Z" transform="translate(-336.806 -396.853)" fill="#3d9be8"/>
        </g>
      </g>
    </g>
  </g>
</svg>
