<svg xmlns="http://www.w3.org/2000/svg" xmlns:xlink="http://www.w3.org/1999/xlink" width="57" height="57" viewBox="0 0 57 57">
  <defs>
    <clipPath id="clip-prix">
      <rect width="57" height="57"/>
    </clipPath>
  </defs>
  <g id="prix" clip-path="url(#clip-prix)">
    <rect width="57" height="57" fill="#fff"/>
    <g id="quality" transform="translate(4.867)">
      <path id="Tracé_19" data-name="Tracé 19" d="M87.106,50.739,79.56,32.522a.91.91,0,0,0-1.681.7L84.7,49.687l-6.223-1.8a.909.909,0,0,0-1.05.435L74.3,53.994l-7.32-17.672a18.341,18.341,0,1,0-18.179-7.064l-8.9,21.481A.91.91,0,0,0,41,51.961l7.341-2.127,3.687,6.7a.91.91,0,0,0,.8.471h.05a.91.91,0,0,0,.79-.56l7.051-17.022a.91.91,0,0,0-1.681-.7L52.71,53.994l-3.125-5.675a.91.91,0,0,0-1.05-.435l-6.222,1.8,7.81-18.855a18.279,18.279,0,0,0,13.385,5.822c.545,0,1.083-.025,1.616-.072l8.225,19.856a.909.909,0,0,0,.79.56h.051a.909.909,0,0,0,.8-.471l3.687-6.7,7.341,2.127a.91.91,0,0,0,1.093-1.222ZM47,18.327A16.508,16.508,0,1,1,63.507,34.835,16.527,16.527,0,0,1,47,18.327Z" transform="translate(-39.838 0)" fill="#1a324e"/>
      <path id="Tracé_20" data-name="Tracé 20" d="M169.038,67.636a.91.91,0,0,0-.715-.616l-6.12-1.027-2.868-5.5a.91.91,0,0,0-1.613,0l-2.868,5.5-6.12,1.027a.91.91,0,0,0-.5,1.534l4.348,4.428-.914,6.138a.91.91,0,0,0,1.305.948l5.555-2.767,5.555,2.767a.91.91,0,0,0,1.305-.948l-.914-6.138,4.348-4.429A.91.91,0,0,0,169.038,67.636Zm-6.179,4.4a.909.909,0,0,0-.251.771l.724,4.86-4.4-2.19a.909.909,0,0,0-.811,0l-4.4,2.19.724-4.86a.909.909,0,0,0-.251-.771l-3.442-3.506,4.846-.813a.909.909,0,0,0,.656-.477l2.271-4.357,2.271,4.357a.91.91,0,0,0,.656.477l4.846.813Z" transform="translate(-134.859 -52.723)" fill="#1a324e"/>
      <path id="Tracé_21" data-name="Tracé 21" d="M142.348,45.606a.909.909,0,0,0-1.021.782,12.87,12.87,0,1,1,0-3.4.91.91,0,1,0,1.8-.239,14.688,14.688,0,1,0,0,3.877.91.91,0,0,0-.782-1.021Z" transform="translate(-104.901 -26.362)" fill="#3d9be8"/>
    </g>
  </g>
</svg>
